# xmcd
# Copyright (C) 1995-1998 Ti Kan
#
# Track frame offsets:
#       150
#       3354
#       22513
#       41412
#       63873
#       81995
#       98202
#       119635
#       135266
#       152222
#       171781
#       192866
#       209879
#       227524
#       241257
#       256920
#       271609
#       286846
#       303841
#       320001
#
# Disc length: 4657 seconds
#
# Revision: 18
# Processed by: cddbd v1.5.1PL0 Copyright (c) Steve Scherf et al.
# Submitted via: CD-Transfer v1.0
#
DISCID=01122f14
DTITLE=White Jim - Dallas 08-2004
DYEAR=04
DGENRE=
TTITLE0=
TTITLE1=Kao Da Dinamo I Hajduk Igraju
TTITLE2=Luda Ljetna Noæ
TTITLE3=Èija Si
TTITLE4=You Had Me
TTITLE5=Whatever Happened To Corey Haim
TTITLE6=Year Of The Rat
TTITLE7=I'd Rather Dance With You
TTITLE8=You're My Everything
TTITLE9=Love Won't Let You Down
TTITLE10=Taste You
TTITLE11=Crazy Love
TTITLE12=See It In A Boys Eyes
TTITLE13=Don't Walk Away
TTITLE14=Lola's Theme
TTITLE15=Stand Up Tall
TTITLE16=Das Spiel Ist Aus
TTITLE17=Freedom Fighters
TTITLE18=Absent Friends
TTITLE19=Static On The Radio
EXTD=
EXTT0=
EXTT1=
EXTT2=
EXTT3=
EXTT4=
EXTT5=
EXTT6=
EXTT7=
EXTT8=
EXTT9=
EXTT10=
EXTT11=
EXTT12=
EXTT13=
EXTT14=
EXTT15=
EXTT16=
EXTT17=
EXTT18=
EXTT19=
PLAYORDER=
